<?xml version="1.0" encoding="UTF-8"?>
<svg version="1.1" xmlns="http://www.w3.org/2000/svg" width="512" height="512">
<path d="M0 0 C14.37697059 7.58784559 22.97907644 21.1893677 27.9375 36.25 C31.69177575 52.03661292 28.56923701 67.0054074 21.56396484 81.28271484 C14.6449656 95.76925369 14.83626668 109.80847091 19 125 C19.35384766 126.43859375 19.35384766 126.43859375 19.71484375 127.90625 C21.0145939 131.61025901 22.27708483 134.07968223 25.84375 135.98486328 C30.76673381 138.09742087 35.8426763 139.57674672 41 141 C41.99 141.33 42.98 141.66 44 142 C44.58394531 141.00033203 44.58394531 141.00033203 45.1796875 139.98046875 C56.79606981 120.84288038 73.54741938 108.241138 95.26953125 102.54296875 C101.70301257 101.26363555 107.68477824 100.9482473 114.22216797 101.11694336 C127.29388897 101.42796982 138.58161707 100.9357884 149.00390625 92.0625 C152.54173561 88.40697378 155.23759583 84.25151267 158 80 C161.63934426 75.18032787 161.63934426 75.18032787 164 74 C168.95006599 73.5049934 171.04354121 73.4332096 175.375 76 C180.26660042 81.59040048 180.36658233 88.60958773 180.3125 95.75 C180.30686035 96.53713379 180.3012207 97.32426758 180.29541016 98.13525391 C179.96849731 113.96625137 173.9212872 127.16576448 162.82421875 138.31640625 C155.11343849 145.64324724 147.21642781 149.25066022 137.40136719 153.02270508 C120.35326291 159.64985997 109.7094371 170.00917379 101.80859375 186.484375 C100.31846401 191.12033419 100.59516164 194.06329493 102.53125 198.54296875 C103.17541933 199.76426121 103.83196162 200.97909853 104.5 202.1875 C108 208.6402027 108 208.6402027 108 212 C109.16015625 211.7834375 110.3203125 211.566875 111.515625 211.34375 C133.80423171 207.30911494 154.92492555 208.81208858 174.5390625 221.28515625 C181.49527234 226.13241993 187.58653868 231.37708382 193.1875 237.75 C200.32037812 245.76748937 207.25142671 249.54570349 218 251 C223.17070795 250.98787642 228.08161963 250.63946012 233 249 C237.97909384 248.40926005 241.75575756 248.25345453 246.125 250.875 C248.84672977 255.41121628 249.2574547 258.85320869 248 264 C242.76969655 273.91004865 232.82373283 284.2741023 222 288 C218.79208932 288.28928019 216.01649118 288.15930158 213 287 C212.45859375 286.32195312 211.9171875 285.64390625 211.359375 284.9453125 C207.61693289 281.85965659 203.74571162 282.6141443 199.0625 282.8125 C197.28267765 282.86511191 195.50272193 282.91342162 193.72265625 282.95703125 C192.89419189 282.98031494 192.06572754 283.00359863 191.2121582 283.02758789 C189 283 189 283 186.046875 282.359375 C185.03367187 282.18148437 185.03367187 282.18148437 184 282 C182.54311197 283.26263629 181.08836531 284.52847965 179.66796875 285.83203125 C177.12256417 287.61441057 175.01017346 287.70061759 171.96484375 287.47265625 C168.19920878 286.56680768 166.45027545 284.92837797 164 282 C163.23962886 278.98872885 163.01350633 276.09970383 163 273 C151.56539914 270.60576552 151.56539914 270.60576552 140 269 C139.9071875 270.3303125 139.9071875 270.3303125 139.8125 271.6875 C138.77447061 275.91946596 137.33619252 277.22057603 134 280 C131.40331363 281.16436651 128.74889539 281.9048097 126 282.625 C119.03782326 284.36163868 119.03782326 284.36163868 113 288 C111.57861575 290.73279824 110.66174909 293.56377578 109.75 296.5 C109.49476563 297.27214844 109.23953125 298.04429687 108.9765625 298.83984375 C108.30192704 300.88860513 107.64915809 302.94306837 107 305 C106.67 305.99 106.34 306.98 106 308 C106.99966797 308.58394531 106.99966797 308.58394531 108.01953125 309.1796875 C127.15711962 320.79606981 139.758862 337.54741938 145.45703125 359.26953125 C146.73636445 365.70301257 147.0517527 371.68477824 146.88305664 378.22216797 C146.57203018 391.29388897 147.0642116 402.58161707 155.9375 413.00390625 C159.59302622 416.54173561 163.74848733 419.23759583 168 422 C172.81967213 425.63934426 172.81967213 425.63934426 174 428 C174.4950066 432.95006599 174.5667904 435.04354121 172 439.375 C166.40959952 444.26660042 159.39041227 444.36658233 152.25 444.3125 C151.46286621 444.30686035 150.67573242 444.3012207 149.86474609 444.29541016 C134.03374863 443.96849731 120.83423552 437.9212872 109.68359375 426.82421875 C102.35675276 419.11343849 98.74933978 411.21642781 94.97729492 401.40136719 C88.35014003 384.35326291 77.99082621 373.7094371 61.515625 365.80859375 C56.87966581 364.31846401 53.93670507 364.59516164 49.45703125 366.53125 C48.23573879 367.17541933 47.02090147 367.83196162 45.8125 368.5 C39.3597973 372 39.3597973 372 36 372 C36.2165625 373.07636719 36.433125 374.15273438 36.65625 375.26171875 C40.96577793 397.47137962 39.12156158 419.02926194 26.71484375 438.5390625 C21.86758007 445.49527234 16.62291618 451.58653868 10.25 457.1875 C2.23251063 464.32037812 -1.54570349 471.25142671 -3 482 C-2.98787642 487.17070795 -2.63946012 492.08161963 -1 497 C-0.40926005 501.97909384 -0.25345453 505.75575756 -2.875 510.125 C-7.41121628 512.84672977 -10.85320869 513.2574547 -16 512 C-30.37697059 504.41215441 -38.97907644 490.8106323 -43.9375 475.75 C-47.69177575 459.96338708 -44.56923701 444.9945926 -37.56396484 430.71728516 C-30.6449656 416.23074631 -30.83626668 402.19152909 -35 387 C-35.23589844 386.0409375 -35.47179687 385.081875 -35.71484375 384.09375 C-37.0145939 380.38974099 -38.27708483 377.92031777 -41.84375 376.01513672 C-46.76673381 373.90257913 -51.8426763 372.42325328 -57 371 C-57.99 370.67 -58.98 370.34 -60 370 C-60.38929688 370.66644531 -60.77859375 371.33289063 -61.1796875 372.01953125 C-72.32181167 390.37579573 -88.39805341 403.35274678 -109.375 408.8125 C-116.37919175 410.4402347 -122.96299687 411.06748186 -130.13427734 410.88305664 C-143.23709422 410.57393712 -154.5549526 411.0415101 -165.00390625 419.9375 C-168.54173561 423.59302622 -171.23759583 427.74848733 -174 432 C-177.63934426 436.81967213 -177.63934426 436.81967213 -180 438 C-184.95006599 438.4950066 -187.04354121 438.5667904 -191.375 436 C-196.26660042 430.40959952 -196.36658233 423.39041227 -196.3125 416.25 C-196.30686035 415.46286621 -196.3012207 414.67573242 -196.29541016 413.86474609 C-195.96849731 398.03374863 -189.9212872 384.83423552 -178.82421875 373.68359375 C-171.11343849 366.35675276 -163.21642781 362.74933978 -153.40136719 358.97729492 C-137.59835075 352.83414633 -126.49243922 343.37921734 -119 328 C-117.22991827 323.29332366 -116.43120111 319.83934573 -118 315 C-119.48379448 311.8351198 -121.06340668 308.74831891 -122.72265625 305.671875 C-124 303 -124 303 -124 300 C-125.16015625 300.2165625 -126.3203125 300.433125 -127.515625 300.65625 C-149.80423171 304.69088506 -170.92492555 303.18791142 -190.5390625 290.71484375 C-197.49527234 285.86758007 -203.58653868 280.62291618 -209.1875 274.25 C-216.32037812 266.23251063 -223.25142671 262.45429651 -234 261 C-239.17070795 261.01212358 -244.08161963 261.36053988 -249 263 C-253.97909384 263.59073995 -257.75575756 263.74654547 -262.125 261.125 C-264.84672977 256.58878372 -265.2574547 253.14679131 -264 248 C-256.41215441 233.62302941 -242.8106323 225.02092356 -227.75 220.0625 C-211.94185961 216.30310472 -196.95440346 219.45155215 -182.64477539 226.43603516 C-168.15384116 233.36511038 -154.25665461 233.22519172 -139 229 C-137.56333984 228.64615234 -137.56333984 228.64615234 -136.09765625 228.28515625 C-132.39137021 226.98656279 -129.92118828 225.72454483 -128.01513672 222.15625 C-125.90257913 217.23326619 -124.42325328 212.1573237 -123 207 C-122.67 206.01 -122.34 205.02 -122 204 C-122.66644531 203.61070312 -123.33289063 203.22140625 -124.01953125 202.8203125 C-143.15711962 191.20393019 -155.758862 174.45258062 -161.45703125 152.73046875 C-162.73636445 146.29698743 -163.0517527 140.31522176 -162.88305664 133.77783203 C-162.57203018 120.70611103 -163.0642116 109.41838293 -171.9375 98.99609375 C-175.59302622 95.45826439 -179.74848733 92.76240417 -184 90 C-188.81967213 86.36065574 -188.81967213 86.36065574 -190 84 C-190.4950066 79.04993401 -190.5667904 76.95645879 -188 72.625 C-182.40959952 67.73339958 -175.39041227 67.63341767 -168.25 67.6875 C-167.06929932 67.69595947 -167.06929932 67.69595947 -165.86474609 67.70458984 C-150.03374863 68.03150269 -136.83423552 74.0787128 -125.68359375 85.17578125 C-118.35675276 92.88656151 -114.74933978 100.78357219 -110.97729492 110.59863281 C-104.35014003 127.64673709 -93.99082621 138.2905629 -77.515625 146.19140625 C-72.87966581 147.68153599 -69.93670507 147.40483836 -65.45703125 145.46875 C-64.23573879 144.82458067 -63.02090147 144.16803838 -61.8125 143.5 C-55.3597973 140 -55.3597973 140 -52 140 C-52.2165625 138.92363281 -52.433125 137.84726563 -52.65625 136.73828125 C-57.15255952 113.5686863 -55.00364283 91.49353102 -41.5625 71.5625 C-36.8733156 65.32421004 -31.89349825 59.48675569 -25.875 54.5 C-18.17293786 47.88742406 -14.26508686 40.07059243 -13 30 C-13.01821118 24.82802463 -13.3600056 19.9199832 -15 15 C-15.59073995 10.02090616 -15.74654547 6.24424244 -13.125 1.875 C-8.58878372 -0.84672977 -5.14679131 -1.2574547 0 0 Z " fill="#010100" transform="translate(264,0)"/>
<path d="M0 0 C2.36573201 1.87908743 4.64694635 3.82045498 6.9140625 5.81640625 C7.9246875 6.57953125 8.9353125 7.34265625 9.9765625 8.12890625 C24.32638968 21.25747154 34.69282065 39.17947355 39.9140625 57.81640625 C40.213125 58.79996094 40.5121875 59.78351563 40.8203125 60.796875 C47.97364352 87.98615632 41.17054113 115.86924548 27.7421875 139.8359375 C13.17772399 163.58099232 -11.25175323 180.22555397 -38.0859375 186.81640625 C-64.17293265 192.34207969 -90.55089494 185.45627309 -112.9140625 171.5 C-130.76189902 159.69486075 -143.64805131 143.85986662 -151.0859375 123.81640625 C-151.41722656 123.06488281 -151.74851563 122.31335938 -152.08984375 121.5390625 C-154.96596098 113.6776754 -155.44296286 106.07696873 -155.3984375 97.75390625 C-155.38997803 96.10007935 -155.38997803 96.10007935 -155.38134766 94.4128418 C-155.02396484 70.21873295 -146.38843753 49.97375108 -129.0859375 32.81640625 C-116.04861653 20.43095133 -98.9494691 14.25084541 -81.08203125 14.32617188 C-63.22300912 14.93942138 -46.38307317 22.97706883 -34.0859375 35.81640625 C-22.36066741 48.66601731 -20.31404486 61.55550698 -20.90673828 78.29541016 C-21.72021646 89.73951877 -28.61442096 102.11845804 -37.0859375 109.81640625 C-47.88531834 117.6436498 -58.86255576 120.48216158 -72.0859375 118.81640625 C-81.87131013 116.45284483 -90.03790096 110.64595195 -95.78125 102.375 C-99.85055393 95.31766433 -101.36049662 88.51443525 -99.5546875 80.44140625 C-97.68124411 74.41380579 -94.61262684 69.85199203 -90.8359375 64.81640625 C-88.82514341 61.36933067 -88.41895653 59.73491945 -89.0859375 55.81640625 C-90.88587524 53.11649963 -92.1697105 51.27451975 -95.0859375 49.81640625 C-99.00895345 49.44631041 -101.26962349 49.26625391 -104.58984375 51.50390625 C-112.85346714 59.15972009 -117.84019405 70.28674834 -118.359375 81.44140625 C-118.7856581 97.33525311 -116.18662932 109.71514187 -105.0859375 121.81640625 C-90.57618171 134.52330316 -74.2725418 139.02939835 -55.29199219 138.04296875 C-40.96700797 136.57178843 -27.65934471 128.22958603 -18.0859375 117.81640625 C-3.6324445 98.90311169 0.01551116 78.61205265 -2.4765625 55.13671875 C-5.58719264 40.74008439 -13.64631767 28.85509533 -24.0859375 18.81640625 C-25.07013672 17.82060547 -25.07013672 17.82060547 -26.07421875 16.8046875 C-42.26118418 1.38027719 -66.26006311 -4.96116969 -88.140625 -4.46875 C-103.37075719 -3.36795827 -116.75460103 1.36949365 -129.625 9.4609375 C-132.0859375 10.81640625 -132.0859375 10.81640625 -135.0859375 10.81640625 C-97.12811787 -23.42884417 -43.1603882 -30.54007216 0 0 Z " fill="#FDD88D" transform="translate(317.0859375,171.18359375)"/>
<path d="M0 0 C4.92845323 3.69426915 9.03816545 8.21520454 13.3125 12.625 C22.95328811 22.54527745 32.419447 28.88009321 46.0625 32.1875 C45.7325 35.8175 45.4025 39.4475 45.0625 43.1875 C40.97770515 44.20869871 37.29235192 44.33529317 33.125 44.3125 C32.42181641 44.31636719 31.71863281 44.32023437 30.99414062 44.32421875 C27.96191321 44.3185351 25.19443755 44.21829758 22.234375 43.52734375 C21.51765625 43.41519531 20.8009375 43.30304688 20.0625 43.1875 C18.60561197 44.45013629 17.15086531 45.71597965 15.73046875 47.01953125 C13.18506417 48.80191057 11.07267346 48.88811759 8.02734375 48.66015625 C4.26170878 47.75430768 2.51277545 46.11587797 0.0625 43.1875 C-0.69787114 40.17622885 -0.92399367 37.28720383 -0.9375 34.1875 C-8.92018072 32.51523882 -16.80040495 30.90128027 -24.9375 30.1875 C-25.185 29.424375 -25.4325 28.66125 -25.6875 27.875 C-27.11310018 24.80995962 -27.94070024 23.72639718 -30.9375 22.1875 C-35.2132216 21.75992784 -39.0082889 22.34740806 -43.1796875 23.20703125 C-44.07284668 23.38983643 -44.96600586 23.5726416 -45.88623047 23.76098633 C-46.56314941 23.90173584 -47.24006836 24.04248535 -47.9375 24.1875 C-47.96255615 23.60371582 -47.9876123 23.01993164 -48.01342773 22.41845703 C-48.13106199 19.71633687 -48.25301273 17.01442701 -48.375 14.3125 C-48.41431641 13.3946875 -48.45363281 12.476875 -48.49414062 11.53125 C-48.77526388 5.3897881 -49.26068013 -0.70202074 -49.9375 -6.8125 C-33.06213907 -12.55336353 -14.87300528 -9.26760128 0 0 Z " fill="#FCCB68" transform="translate(427.9375,238.8125)"/>
<path d="M0 0 C4.52302983 13.29551913 3.58250655 28.90752905 -2.265625 41.61328125 C-6.75729044 50.38416849 -12.48692862 56.54041058 -19.5 63.375 C-28.83991136 72.4845794 -34.99377844 81.05893196 -38 94 C-38.66 93.67 -39.32 93.34 -40 93 C-42.61166916 83.32839938 -40.8578936 74.99760347 -37 66 C-36.14562851 63.95841904 -35.29146441 61.91675127 -34.4375 59.875 C-34.01855469 58.87855469 -33.59960938 57.88210938 -33.16796875 56.85546875 C-25.82666055 38.90732062 -26.99044595 20.63965307 -31 2 C-30.42032471 1.97494385 -29.84064941 1.9498877 -29.2434082 1.92407227 C-26.59957893 1.80753766 -23.95605591 1.68507318 -21.3125 1.5625 C-20.40048828 1.52318359 -19.48847656 1.48386719 -18.54882812 1.44335938 C-17.66259766 1.40146484 -16.77636719 1.35957031 -15.86328125 1.31640625 C-14.64572144 1.26141968 -14.64572144 1.26141968 -13.40356445 1.20532227 C-8.82035612 0.81380594 -4.65383357 -0.10822869 0 0 Z " fill="#FAC967" transform="translate(280,378)"/>
<path d="M0 0 C14.98030707 6.57979793 35.68052359 8.53607762 51.28515625 3.08203125 C53.24609375 2.42578125 53.24609375 2.42578125 56.24609375 2.42578125 C57.23609375 17.27578125 57.23609375 17.27578125 58.24609375 32.42578125 C50.22843113 37.77088967 35.01731466 36.4997977 25.76171875 34.77734375 C22.78858226 33.85708722 20.06178271 32.74891303 17.24609375 31.42578125 C15.89644531 30.8534375 15.89644531 30.8534375 14.51953125 30.26953125 C5.87164146 25.98132143 -0.10335084 19.21021241 -6.74414062 12.35522461 C-15.33166626 3.59694382 -23.66048621 -1.76490657 -35.75390625 -4.57421875 C-34.75390625 -6.57421875 -34.75390625 -6.57421875 -33.01171875 -7.18359375 C-20.60674711 -9.32978262 -11.00002075 -5.22144683 0 0 Z " fill="#FAC967" transform="translate(75.75390625,246.57421875)"/>
<path d="M0 0 C9.97347977 2.72677604 18.03877677 10.88972445 23.5390625 19.421875 C28.47993699 28.14106528 32.22155182 36.784734 32.2734375 46.9375 C32.29132324 48.2383252 32.30920898 49.53915039 32.32763672 50.87939453 C32.33470642 51.55375549 32.34177612 52.22811646 32.34906006 52.9229126 C32.51866783 66.50390571 32.77384694 79.06652437 40 91 C40 91.66 40 92.32 40 93 C30.83957634 88.79722211 25.14205746 81.52826884 21.57421875 72.3203125 C21.067274 70.94382357 20.56345892 69.56617868 20.0625 68.1875 C12.54615937 47.50209264 -0.18947753 34.21396532 -19 23 C-18.21625 22.0925 -17.4325 21.185 -16.625 20.25 C-13.66207758 16.79207861 -10.73187141 13.3072064 -7.8125 9.8125 C-6.97332031 8.80832031 -6.13414062 7.80414063 -5.26953125 6.76953125 C-3.45077734 4.55008801 -1.6953971 2.31391331 0 0 Z " fill="#FAC967" transform="translate(358,326)"/>
<path d="M0 0 C-4.20277789 9.16042366 -11.47173116 14.85794254 -20.6796875 18.42578125 C-22.0562103 18.93263401 -23.43385406 19.43645097 -24.8125 19.9375 C-41.89987427 26.15769705 -55.13027088 35.54363176 -65 51 C-65.5259375 51.8146875 -66.051875 52.629375 -66.59375 53.46875 C-67.75291857 55.29766041 -68.88081606 57.1463516 -70 59 C-70.9075 58.21625 -71.815 57.4325 -72.75 56.625 C-76.20792139 53.66207758 -79.6927936 50.73187141 -83.1875 47.8125 C-84.19167969 46.97332031 -85.19585937 46.13414062 -86.23046875 45.26953125 C-88.44991199 43.45077734 -90.68608669 41.6953971 -93 40 C-89.81547306 28.7469048 -80.72866552 20.89616092 -71 15 C-62.98146415 10.76379238 -55.23050293 7.77341555 -46.0625 7.7265625 C-44.7616748 7.70867676 -43.46084961 7.69079102 -42.12060547 7.67236328 C-41.44624451 7.66529358 -40.77188354 7.65822388 -40.0770874 7.65093994 C-26.41745985 7.48035013 -11.92288765 0 0 0 Z " fill="#FAC967" transform="translate(419,114)"/>
<path d="M0 0 C1.36125 1.175625 1.36125 1.175625 2.75 2.375 C6.20792139 5.33792242 9.6927936 8.26812859 13.1875 11.1875 C14.69376953 12.44626953 14.69376953 12.44626953 16.23046875 13.73046875 C18.44991199 15.54922266 20.68608669 17.3046029 23 19 C20.31347394 28.82626107 12.21210901 37.02604355 3.78125 42.46875 C-5.798416 47.74294814 -14.70743658 51.04250604 -25.7265625 51.2109375 C-27.64662109 51.25347656 -27.64662109 51.25347656 -29.60546875 51.296875 C-32.26177512 51.35120413 -34.91752643 51.39289849 -37.57421875 51.4296875 C-48.8360108 51.70024106 -58.32941714 53.11355826 -68 59 C-68.66 58.67 -69.32 58.34 -70 58 C-62.74011813 47.03900189 -54.39411134 42.51717843 -42.37866211 37.90795898 C-36.13596294 35.50334221 -30.44564102 32.94041982 -25 29 C-23.65421875 28.03513672 -23.65421875 28.03513672 -22.28125 27.05078125 C-12.66914871 19.69646749 -6.14570781 10.30892923 0 0 Z " fill="#FBC967" transform="translate(163,339)"/>
<path d="M0 0 C9.8936319 4.57305652 15.73415901 12.86126974 19.4921875 22.84765625 C20.2546319 24.93046738 21.00612641 27.01702593 21.75708008 29.10400391 C28.6023359 47.82603326 42.20814938 59.98947367 59 70 C58.21625 70.9075 57.4325 71.815 56.625 72.75 C53.66207758 76.20792139 50.73187141 79.6927936 47.8125 83.1875 C46.55373047 84.69376953 46.55373047 84.69376953 45.26953125 86.23046875 C43.45077734 88.44991199 41.6953971 90.68608669 40 93 C30.17373893 90.31347394 21.97395645 82.21210901 16.53125 73.78125 C11.25705186 64.201584 7.95749396 55.29256342 7.7890625 44.2734375 C7.76070313 42.99339844 7.73234375 41.71335938 7.703125 40.39453125 C7.64879587 37.73822488 7.60710151 35.08247357 7.5703125 32.42578125 C7.30236334 21.27239766 6.00730922 11.52883531 0 2 C0 1.34 0 0.68 0 0 Z " fill="#FBC967" transform="translate(114,93)"/>
<path d="M0 0 C0.66 0.33 1.32 0.66 2 1 C3.05579143 15.04789152 1.28102472 24.55532625 -5.07714844 37.06542969 C-11.77377964 51.10355287 -12.76962566 72.40912659 -7.65625 87.0390625 C-7 89 -7 89 -7 92 C-7.589021 92.02505615 -8.17804199 92.0501123 -8.78491211 92.07592773 C-11.50258671 92.19332361 -14.22003342 92.31538715 -16.9375 92.4375 C-17.86369141 92.47681641 -18.78988281 92.51613281 -19.74414062 92.55664062 C-25.53513419 92.82079121 -31.24539503 93.29764309 -37 94 C-42.34510842 85.98233738 -41.07401645 70.77122091 -39.3515625 61.515625 C-38.43130597 58.54248851 -37.32313178 55.81568896 -36 53 C-35.6184375 52.10023437 -35.236875 51.20046875 -34.84375 50.2734375 C-30.57908747 41.67303472 -23.86644672 35.52457775 -16.92944336 29.02514648 C-9.70549918 22.15489798 -4.53777086 15.00954975 -1.625 5.375 C-1.14933594 3.83972656 -1.14933594 3.83972656 -0.6640625 2.2734375 C-0.33535156 1.14808594 -0.33535156 1.14808594 0 0 Z " fill="#FBCA67" transform="translate(270,40)"/>
<path d="M0 0 C2.9375 2.4375 2.9375 2.4375 5 5 C5.33 5.33 5.66 5.66 6 6 C6.12249741 10.80364847 5.95297254 14.78712585 2.9375 18.625 C-0.81617005 20.38203704 -3.97933925 20.89522525 -8 20 C-10.79628419 18.63801675 -11.85849718 17.45489348 -14 15 C-15.125 11.5625 -15.125 11.5625 -15 8 C-11.55392838 1.47707871 -7.50276539 -1.49177791 0 0 Z " fill="#030301" transform="translate(442,267)"/>
<path d="M0 0 C0.66 0.33 1.32 0.66 2 1 C2 1.66 2 2.32 2 3 C0.03125 4.5078125 0.03125 4.5078125 -2.5 6.125 C-3.3353125 6.66382813 -4.170625 7.20265625 -5.03125 7.7578125 C-5.6809375 8.16773438 -6.330625 8.57765625 -7 9 C-7.66 8.67 -8.32 8.34 -9 8 C-6.03 5.36 -3.06 2.72 0 0 Z " fill="#C3A66D" transform="translate(191,174)"/>
</svg>
